ply
format ascii 1.0
comment : MagicaVoxel @ Ephtracy
element vertex 20
property float x
property float y
property float z
property uchar red
property uchar green
property uchar blue
element face 5
property list uchar int vertex_index
end_header
-0.095 -0.095 0.005 153 153 255
-0.005 -0.095 0.005 153 153 255
-0.095 -0.005 0.005 153 153 255
-0.005 -0.005 0.005 153 153 255
-0.095 -0.095 0.095 153 153 255
-0.005 -0.095 0.095 153 153 255
-0.095 -0.005 0.095 153 153 255
-0.005 -0.005 0.095 153 153 255
0.005 -0.095 0.005 153 153 255
0.095 -0.095 0.005 153 153 255
0.005 -0.005 0.005 153 153 255
0.095 -0.005 0.005 153 153 255
0.005 -0.095 0.095 153 153 255
0.095 -0.095 0.095 153 153 255
0.005 -0.005 0.095 153 153 255
0.095 -0.005 0.095 153 153 255
0.105 -0.095 0.005 153 153 255
0.195 -0.095 0.005 153 153 255
0.105 -0.005 0.005 153 153 255
0.195 -0.005 0.005 153 153 255
4 0 4 6 2
4 1 3 7 5
4 0 1 5 4
4 2 6 7 3
4 0 2 3 1
